<svg width="108" height="16" viewBox="0 0 108 16" fill="none" xmlns="http://www.w3.org/2000/svg">
<g opacity="0.7">
<rect x="13.3976" y="4.87512" width="11.6506" height="3.21396" transform="rotate(135 13.3976 4.87512)" fill="#212121"/>
<path d="M14.5336 1.46623C15.1612 2.0938 15.1612 3.11128 14.5336 3.73884L13.9655 4.307L11.6929 2.03439L12.261 1.46623C12.8886 0.83867 13.9061 0.83867 14.5336 1.46623Z" fill="#212121"/>
<path d="M1.87016 13.4838L2.88669 10.8408L5.1593 13.1134L2.51632 14.1299C2.11195 14.2855 1.71463 13.8881 1.87016 13.4838Z" fill="#212121"/>
<path d="M26.6941 4.352V7.616H30.5341V9.104H26.6941V12.512H31.0141V14H24.8701V2.864H31.0141V4.352H26.6941ZM32.6527 9.552C32.6527 8.66667 32.8341 7.88267 33.1967 7.2C33.5701 6.51733 34.0714 5.98933 34.7007 5.616C35.3407 5.232 36.0501 5.04 36.8287 5.04C37.4047 5.04 37.9701 5.168 38.5247 5.424C39.0901 5.66933 39.5381 6 39.8687 6.416V2.16H41.7087V14H39.8687V12.672C39.5701 13.0987 39.1541 13.4507 38.6207 13.728C38.0981 14.0053 37.4954 14.144 36.8127 14.144C36.0447 14.144 35.3407 13.952 34.7007 13.568C34.0714 13.1733 33.5701 12.6293 33.1967 11.936C32.8341 11.232 32.6527 10.4373 32.6527 9.552ZM39.8687 9.584C39.8687 8.976 39.7407 8.448 39.4847 8C39.2394 7.552 38.9141 7.21067 38.5087 6.976C38.1034 6.74133 37.6661 6.624 37.1967 6.624C36.7274 6.624 36.2901 6.74133 35.8847 6.976C35.4794 7.2 35.1487 7.536 34.8927 7.984C34.6474 8.42133 34.5247 8.944 34.5247 9.552C34.5247 10.16 34.6474 10.6933 34.8927 11.152C35.1487 11.6107 35.4794 11.9627 35.8847 12.208C36.3007 12.4427 36.7381 12.56 37.1967 12.56C37.6661 12.56 38.1034 12.4427 38.5087 12.208C38.9141 11.9733 39.2394 11.632 39.4847 11.184C39.7407 10.7253 39.8687 10.192 39.8687 9.584ZM45.0325 4.016C44.7018 4.016 44.4245 3.904 44.2005 3.68C43.9765 3.456 43.8645 3.17867 43.8645 2.848C43.8645 2.51733 43.9765 2.24 44.2005 2.016C44.4245 1.792 44.7018 1.68 45.0325 1.68C45.3525 1.68 45.6245 1.792 45.8485 2.016C46.0725 2.24 46.1845 2.51733 46.1845 2.848C46.1845 3.17867 46.0725 3.456 45.8485 3.68C45.6245 3.904 45.3525 4.016 45.0325 4.016ZM45.9285 5.184V14H44.1045V5.184H45.9285ZM50.4512 6.672V11.552C50.4512 11.8827 50.5259 12.1227 50.6752 12.272C50.8352 12.4107 51.1019 12.48 51.4752 12.48H52.5952V14H51.1552C50.3339 14 49.7046 13.808 49.2672 13.424C48.8299 13.04 48.6112 12.416 48.6112 11.552V6.672H47.5712V5.184H48.6112V2.992H50.4512V5.184H52.5952V6.672H50.4512ZM66.2086 6.192C66.2086 6.75733 66.0753 7.29067 65.8086 7.792C65.5419 8.29333 65.1153 8.704 64.5286 9.024C63.9419 9.33333 63.1899 9.488 62.2726 9.488H60.2566V14H58.4326V2.88H62.2726C63.1259 2.88 63.8459 3.02933 64.4326 3.328C65.0299 3.616 65.4726 4.01067 65.7606 4.512C66.0593 5.01333 66.2086 5.57333 66.2086 6.192ZM62.2726 8C62.9659 8 63.4833 7.84533 63.8246 7.536C64.1659 7.216 64.3366 6.768 64.3366 6.192C64.3366 4.976 63.6486 4.368 62.2726 4.368H60.2566V8H62.2726ZM69.7722 6.464C70.0389 6.016 70.3909 5.66933 70.8282 5.424C71.2762 5.168 71.8042 5.04 72.4122 5.04V6.928H71.9482C71.2336 6.928 70.6896 7.10933 70.3162 7.472C69.9536 7.83467 69.7722 8.464 69.7722 9.36V14H67.9482V5.184H69.7722V6.464ZM77.9129 14.144C77.0809 14.144 76.3289 13.9573 75.6569 13.584C74.9849 13.2 74.4569 12.6667 74.0729 11.984C73.6889 11.2907 73.4969 10.4907 73.4969 9.584C73.4969 8.688 73.6942 7.89333 74.0889 7.2C74.4835 6.50667 75.0222 5.97333 75.7049 5.6C76.3875 5.22667 77.1502 5.04 77.9929 5.04C78.8355 5.04 79.5982 5.22667 80.2809 5.6C80.9635 5.97333 81.5022 6.50667 81.8969 7.2C82.2915 7.89333 82.4889 8.688 82.4889 9.584C82.4889 10.48 82.2862 11.2747 81.8809 11.968C81.4755 12.6613 80.9209 13.2 80.2169 13.584C79.5235 13.9573 78.7555 14.144 77.9129 14.144ZM77.9129 12.56C78.3822 12.56 78.8195 12.448 79.2249 12.224C79.6409 12 79.9769 11.664 80.2329 11.216C80.4889 10.768 80.6169 10.224 80.6169 9.584C80.6169 8.944 80.4942 8.40533 80.2489 7.968C80.0035 7.52 79.6782 7.184 79.2729 6.96C78.8675 6.736 78.4302 6.624 77.9609 6.624C77.4915 6.624 77.0542 6.736 76.6489 6.96C76.2542 7.184 75.9395 7.52 75.7049 7.968C75.4702 8.40533 75.3529 8.944 75.3529 9.584C75.3529 10.5333 75.5929 11.2693 76.0729 11.792C76.5635 12.304 77.1769 12.56 77.9129 12.56ZM87.988 6.672H86.356V14H84.516V6.672H83.476V5.184H84.516V4.56C84.516 3.54667 84.7826 2.81067 85.316 2.352C85.86 1.88267 86.708 1.648 87.86 1.648V3.168C87.3053 3.168 86.916 3.27467 86.692 3.488C86.468 3.69067 86.356 4.048 86.356 4.56V5.184H87.988V6.672ZM90.5325 4.016C90.2018 4.016 89.9245 3.904 89.7005 3.68C89.4765 3.456 89.3645 3.17867 89.3645 2.848C89.3645 2.51733 89.4765 2.24 89.7005 2.016C89.9245 1.792 90.2018 1.68 90.5325 1.68C90.8525 1.68 91.1245 1.792 91.3485 2.016C91.5725 2.24 91.6845 2.51733 91.6845 2.848C91.6845 3.17867 91.5725 3.456 91.3485 3.68C91.1245 3.904 90.8525 4.016 90.5325 4.016ZM91.4285 5.184V14H89.6045V5.184H91.4285ZM95.6472 2.16V14H93.8232V2.16H95.6472ZM106.122 9.376C106.122 9.70667 106.101 10.0053 106.058 10.272H99.322C99.3753 10.976 99.6366 11.5413 100.106 11.968C100.575 12.3947 101.151 12.608 101.834 12.608C102.815 12.608 103.509 12.1973 103.914 11.376H105.882C105.615 12.1867 105.13 12.8533 104.426 13.376C103.733 13.888 102.869 14.144 101.834 14.144C100.991 14.144 100.234 13.9573 99.562 13.584C98.9006 13.2 98.378 12.6667 97.994 11.984C97.6206 11.2907 97.434 10.4907 97.434 9.584C97.434 8.67733 97.6153 7.88267 97.978 7.2C98.3513 6.50667 98.8686 5.97333 99.53 5.6C100.202 5.22667 100.97 5.04 101.834 5.04C102.666 5.04 103.407 5.22133 104.058 5.584C104.709 5.94667 105.215 6.45867 105.578 7.12C105.941 7.77067 106.122 8.52267 106.122 9.376ZM104.218 8.8C104.207 8.128 103.967 7.58933 103.498 7.184C103.029 6.77867 102.447 6.576 101.754 6.576C101.125 6.576 100.586 6.77867 100.138 7.184C99.69 7.57867 99.4233 8.11733 99.338 8.8H104.218Z" fill="#212121"/>
</g>
</svg>
